<?xml version="1.0" encoding="UTF-8"?> <svg xmlns="http://www.w3.org/2000/svg" width="84" height="77" viewBox="0 0 84 77" fill="none"><g clip-path="url(#clip0_1_82)"><path fill-rule="evenodd" clip-rule="evenodd" d="M32.8225 25.0279V18.6592H37.963V13.89H32.8225V9.12068C32.8225 8.24175 33.5345 7.53573 34.3888 7.53573H37.9488H44.6129H50.1237C50.9923 7.53573 51.6901 8.25616 51.6901 9.12068V11.9304H56.4034V7.1611C56.4034 4.74044 54.4526 2.75204 52.0461 2.75204H44.5987H37.9345H32.4238C30.0315 2.75204 28.0664 4.72603 28.0664 7.1611V27.0019C28.0664 29.4225 30.0172 31.4109 32.4238 31.4109H44.0861C49.013 30.9066 51.092 29.0767 51.2344 26.1229C50.9496 26.4399 50.5367 26.6272 50.081 26.6272H34.3888C33.5345 26.6272 32.8225 25.9068 32.8225 25.0279Z" fill="#031158"></path><path fill-rule="evenodd" clip-rule="evenodd" d="M51.6901 18.6736V25.0423C51.8467 29.2208 49.6111 31.1516 45.3961 31.4109H51.747C55.4778 31.4109 56.4034 28.9614 56.4034 25.6042V13.89H51.6901H48.0874H44.6129H39.8996V18.6592V25.0279H44.6129V18.6592H51.6901V18.6736Z" fill="#B71111"></path><path d="M53.2992 0H31.2134C27.9667 0 25.3324 2.78088 25.3324 6.19573V27.9528C25.3324 31.3677 27.9667 34.1486 31.2134 34.1486H53.2992C56.5458 34.1486 59.1802 31.3677 59.1802 27.9528V6.19573C59.1802 2.78088 56.5458 0 53.2992 0ZM57.6708 27.9528C57.6708 30.4888 55.7057 32.5636 53.2992 32.5636H31.2134C28.8069 32.5636 26.8418 30.5032 26.8418 27.9528V6.19573C26.8418 3.65981 28.8069 1.58496 31.2134 1.58496H53.2992C55.7057 1.58496 57.6708 3.6454 57.6708 6.19573V27.9528Z" fill="#B71111"></path><path d="M7.50431 75.3286L7.60398 75.4871L7.49007 76.8271H1.13916L1.25308 73.5563L1.13916 65.9341H7.51855L7.61822 66.0926L7.49007 67.4326L4.94116 67.3606L2.89064 67.375L2.83368 70.5449L4.77028 70.5737L6.55025 70.5161L6.66416 70.6457L6.53601 71.9858L4.64213 71.9281L2.81944 71.9569L2.80521 73.369L2.86216 75.3718L4.91268 75.3862L7.50431 75.3286Z" fill="#031158" stroke="#031158" stroke-miterlimit="10"></path><path d="M16.6035 74.2191L16.6604 76.8127H14.9232L10.9503 70.8475H10.8506L10.8221 73.9309L10.8791 76.8127H9.41241L9.48361 74.32L9.42665 68.326H11.1354L15.1083 74.2912H15.2365L15.1795 68.3692L16.6747 68.2827L16.6035 74.2191Z" fill="#031158" stroke="#031158" stroke-miterlimit="10"></path><path d="M24.8767 68.4556L24.7771 69.7668L23.1537 69.6516H22.456L22.4275 74.1327L22.4845 76.8271H20.8754L20.9466 74.2911L20.9181 69.666H20.2346L18.5828 69.7812L18.4689 69.6516L18.5828 68.3404H24.834L24.8767 68.4556Z" fill="#031158" stroke="#031158" stroke-miterlimit="10"></path><path d="M32.1817 75.4583L32.2956 75.5735L32.1675 76.8127H26.7849L26.856 74.2767L26.7849 68.326H32.2102L32.3099 68.4556L32.1959 69.6948L30.0742 69.6083L28.3939 69.6227L28.3655 71.8273L29.9745 71.8417L31.427 71.784L31.5124 71.9137L31.4128 73.1673L29.8321 73.1096L28.337 73.124L28.3227 74.0894L28.3512 75.4727L29.9033 75.4871L32.1817 75.4583Z" fill="#031158" stroke="#031158" stroke-miterlimit="10"></path><path d="M40.8252 76.4236L40.811 76.6254C40.2271 76.7983 39.7287 76.8991 39.2873 76.928L39.031 76.7695C38.2193 75.4294 37.6355 74.4641 37.308 73.8589L35.8271 73.8733V74.1038L35.8983 76.7983H34.2892L34.3604 74.2623L34.2892 68.3116L37.4646 68.2971C38.376 68.2971 39.0737 68.5133 39.5721 68.9455C40.0705 69.3778 40.3126 69.9974 40.3126 70.7898C40.3126 71.3374 40.1702 71.8417 39.8711 72.3028C39.5721 72.7494 39.1592 73.1241 38.6181 73.4266C39.2731 74.4064 39.9993 75.4006 40.8252 76.4236ZM35.8413 72.5765L37.2938 72.6342C38.1766 72.3748 38.6181 71.8129 38.6181 70.9628C38.6181 70.5017 38.4899 70.1559 38.2193 69.9397C37.9488 69.7236 37.5501 69.5939 36.9947 69.5795L35.884 69.6083L35.8413 72.5765Z" fill="#031158" stroke="#031158" stroke-miterlimit="10"></path><path d="M48.1444 68.9744C48.6428 69.421 48.8849 70.055 48.8849 70.8763C48.8849 71.8417 48.5716 72.6198 47.9308 73.1673C47.2901 73.7148 46.4357 74.003 45.3535 74.003H44.3994V74.1038L44.4706 76.7983H42.8615L42.9327 74.2623L42.8615 68.3116L46.037 68.2971C46.9483 68.3116 47.6461 68.5277 48.1444 68.9744ZM47.2046 71.0204C47.2046 70.5305 47.0765 70.1703 46.8059 69.9397C46.5354 69.7092 46.1224 69.5795 45.5671 69.5507L44.4848 69.5795L44.4279 72.7638L45.7664 72.7927C46.7205 72.5909 47.2046 72.0002 47.2046 71.0204Z" fill="#031158" stroke="#031158" stroke-miterlimit="10"></path><path d="M57.4714 76.4236L57.4572 76.6254C56.8734 76.7983 56.375 76.8991 55.9336 76.928L55.6772 76.7695C54.8656 75.4294 54.2818 74.4641 53.9542 73.8589L52.4733 73.8733V74.1038L52.5445 76.7983H50.9354L51.0066 74.2623L50.9354 68.3116L54.1109 68.2971C55.0222 68.2971 55.72 68.5133 56.2184 68.9455C56.7167 69.3778 56.9588 69.9974 56.9588 70.7898C56.9588 71.3374 56.8164 71.8417 56.5174 72.3028C56.2184 72.7494 55.8054 73.1241 55.2643 73.4266C55.9193 74.4064 56.6598 75.4006 57.4714 76.4236ZM52.4876 72.5765L53.94 72.6342C54.8229 72.3748 55.2643 71.8129 55.2643 70.9628C55.2643 70.5017 55.1361 70.1559 54.8656 69.9397C54.595 69.7236 54.1963 69.5939 53.641 69.5795L52.5445 69.5939L52.4876 72.5765Z" fill="#031158" stroke="#031158" stroke-miterlimit="10"></path><path d="M61.0598 74.1183L61.131 76.8127H59.5219L59.5931 74.2767L59.5219 68.326H61.1452L61.0598 74.1183Z" fill="#031158" stroke="#031158" stroke-miterlimit="10"></path><path d="M68.8917 68.643L68.6353 70.1847L68.379 70.2423C67.7383 69.7236 67.1117 69.4643 66.5421 69.4643C66.1292 69.4643 65.8016 69.5651 65.5596 69.7812C65.3175 69.9974 65.2036 70.2423 65.2036 70.5305C65.2036 70.8187 65.3317 71.0492 65.5738 71.2365C65.8301 71.4238 66.2146 71.6256 66.7557 71.8561C67.2541 72.0722 67.667 72.2739 67.9661 72.4613C68.2794 72.6486 68.5357 72.8935 68.7635 73.1961C68.9913 73.4987 69.1053 73.8733 69.1053 74.3344C69.1053 74.7955 68.9913 75.2277 68.7493 75.6168C68.5072 76.0058 68.1512 76.3372 67.6813 76.5677C67.2114 76.8127 66.6276 76.928 65.9583 76.928C65.5596 76.928 65.1324 76.8847 64.691 76.7983C64.2495 76.7118 63.8081 76.5677 63.3951 76.3948L63.6087 74.7522L63.7939 74.6514C64.1214 74.9828 64.5058 75.2421 64.9473 75.4294C65.3887 75.6168 65.7874 75.7032 66.1576 75.7032C66.5564 75.7032 66.8839 75.6024 67.1402 75.3862C67.3965 75.1701 67.5104 74.9251 67.5104 74.6081C67.5104 74.2912 67.3823 74.0606 67.1259 73.8733C66.8696 73.686 66.4709 73.4843 65.9298 73.2537C65.4457 73.0376 65.0469 72.8359 64.7337 72.6486C64.4204 72.4613 64.1498 72.2163 63.9362 71.8993C63.7227 71.5823 63.6087 71.2077 63.6087 70.761C63.6087 70.2855 63.7369 69.8533 63.979 69.4787C64.2353 69.0896 64.5913 68.787 65.0612 68.5565C65.5311 68.326 66.0864 68.2107 66.713 68.2107C67.4677 68.2251 68.1797 68.3692 68.8917 68.643Z" fill="#031158" stroke="#031158" stroke-miterlimit="10"></path><path d="M76.7662 75.4583L76.8802 75.5735L76.752 76.8127H71.3694L71.4406 74.2767L71.3694 68.326H76.7947L76.8944 68.4556L76.7805 69.6948L74.6588 69.6083L72.9785 69.6227L72.95 71.8273L74.5591 71.8417L76.0115 71.784L76.097 71.9137L75.9973 73.1673L74.4167 73.1096L72.9215 73.124L72.9073 74.0894L72.9358 75.4727L74.4879 75.4871L76.7662 75.4583Z" fill="#031158" stroke="#031158" stroke-miterlimit="10"></path><path d="M83.7152 68.643L83.4589 70.1847L83.2026 70.2423C82.5618 69.7236 81.9353 69.4643 81.3657 69.4643C80.9527 69.4643 80.6252 69.5651 80.3831 69.7812C80.1411 69.9974 80.0271 70.2423 80.0271 70.5305C80.0271 70.8187 80.1553 71.0492 80.3974 71.2365C80.6537 71.4238 81.0382 71.6256 81.5793 71.8561C82.0777 72.0722 82.4906 72.2739 82.7896 72.4613C83.1029 72.6486 83.3592 72.8935 83.5871 73.1961C83.8149 73.4987 83.9288 73.8733 83.9288 74.3344C83.9288 74.7955 83.8149 75.2277 83.5728 75.6168C83.3307 76.0058 82.9748 76.3372 82.5048 76.5677C82.0349 76.8127 81.4511 76.928 80.7818 76.928C80.3831 76.928 79.9559 76.8847 79.5145 76.7983C79.0731 76.7118 78.6316 76.5677 78.2187 76.3948L78.4323 74.7522L78.6174 74.6514C78.9449 74.9828 79.3294 75.2421 79.7708 75.4294C80.2123 75.6168 80.611 75.7032 80.9812 75.7032C81.3799 75.7032 81.7074 75.6024 81.9637 75.3862C82.22 75.1701 82.334 74.9251 82.334 74.6081C82.334 74.2912 82.2058 74.0606 81.9495 73.8733C81.6932 73.686 81.2945 73.4843 80.7534 73.2537C80.2692 73.0376 79.8705 72.8359 79.5572 72.6486C79.244 72.4613 78.9734 72.2163 78.7598 71.8993C78.5462 71.5823 78.4323 71.2077 78.4323 70.761C78.4323 70.2855 78.5604 69.8533 78.8025 69.4787C79.0588 69.0896 79.4148 68.787 79.8847 68.5565C80.3546 68.326 80.91 68.2107 81.5365 68.2107C82.2912 68.2251 83.0032 68.3692 83.7152 68.643Z" fill="#031158" stroke="#031158" stroke-miterlimit="10"></path><path d="M9.82539 48.2402C9.64028 49.4506 9.45516 50.6465 9.27004 51.828C9.18461 51.8568 9.09917 51.8712 9.01373 51.9001C8.38718 51.6551 7.84608 51.5398 7.36193 51.5254C6.87778 51.511 6.37939 51.5975 5.83828 51.7848C5.16901 52.0153 4.64214 52.3323 4.25767 52.7358C3.8732 53.1392 3.5884 53.6579 3.40329 54.2919C3.21817 54.9403 3.13273 55.7472 3.14697 56.7414C3.16121 57.7212 3.26089 58.4848 3.46025 59.0179C3.6596 59.5511 3.95864 59.9257 4.37159 60.1418C4.78454 60.3579 5.35413 60.4444 6.06611 60.3868C6.4221 60.3579 6.83506 60.2571 7.29073 60.0698C7.29073 59.7384 7.29073 59.407 7.29073 59.09C7.24801 58.3263 7.21953 57.5627 7.19105 56.799C8.11663 56.5541 9.05645 56.3091 9.99627 56.0786C9.99627 56.7702 10.0105 57.4762 10.0105 58.1678C10.0532 59.4646 10.0817 60.747 10.1244 62.0438C8.62926 62.7354 7.20529 63.0236 5.86676 63.0236C3.93016 63.0236 2.44923 62.4616 1.48093 61.5395C0.48415 60.6029 0 59.3493 0 57.6203C0 55.7328 0.555348 54.1046 1.63757 52.5628C2.71978 51.0355 4.27191 49.6811 6.33667 48.8022C7.66096 48.2402 8.82861 48.0385 9.82539 48.2402Z" fill="#B71111"></path><path d="M22.7408 62.7354C21.6871 62.7354 20.6476 62.7498 19.5938 62.7498C19.4657 61.8853 19.3375 61.0208 19.2093 60.1706C19.1381 59.8248 19.0812 59.4934 19.01 59.1476C18.2695 59.1764 17.5291 59.1909 16.8028 59.2197C16.1621 59.2917 15.5355 59.3494 14.8947 59.4214C14.852 59.6519 14.8093 59.8825 14.7666 60.0986C14.6811 60.9919 14.5814 61.8853 14.496 62.7642C13.485 62.7642 12.474 62.7786 11.463 62.7786C12.6448 57.5627 13.8125 51.9145 14.9802 45.8916C16.2048 45.517 17.4436 45.1712 18.6967 44.8542C20.0495 50.5024 21.4023 56.4964 22.7408 62.7354ZM18.3407 55.8192C17.8851 53.6147 17.4294 51.4534 16.9737 49.3353C16.9168 49.3497 16.8456 49.3641 16.7886 49.3785C16.3756 51.6839 15.9485 53.9317 15.5355 56.1362C16.0054 56.093 16.4753 56.0642 16.9452 56.0209C17.4009 55.9633 17.8708 55.8913 18.3407 55.8192Z" fill="#B71111"></path><path d="M32.0251 42.8226C31.9824 44.0761 31.9397 45.3297 31.8969 46.5832C31.0853 46.5977 30.2594 46.6121 29.4477 46.6409C29.2626 46.6553 29.0917 46.6841 28.9066 46.6985C28.9208 49.9117 28.9493 53.1392 28.9636 56.3523C29.0348 58.4704 29.106 60.6029 29.1772 62.7354C28.1519 62.7354 27.1124 62.7354 26.0871 62.7498C26.1014 60.8334 26.1299 58.9171 26.1441 57.0007C26.0444 53.7011 25.959 50.4015 25.8593 47.102C25.66 47.1308 25.4748 47.1596 25.2755 47.1884C24.4638 47.3757 23.6522 47.563 22.8262 47.7503C22.7551 47.6495 22.6981 47.5342 22.6269 47.4334C22.6696 46.2663 22.6981 45.0992 22.7408 43.932C25.7454 43.2981 28.7784 42.8226 31.8257 42.4912C31.8969 42.592 31.9681 42.7073 32.0251 42.8226Z" fill="#B71111"></path><path d="M42.5198 58.456C42.5767 58.5857 42.6337 58.7154 42.6906 58.845C42.6194 60.1274 42.5625 61.4242 42.4913 62.7066C39.7857 62.7066 37.0802 62.7066 34.3746 62.7066C34.4174 60.6894 34.4458 58.6721 34.4886 56.6405C34.3889 51.8424 34.2892 47.0443 34.1753 42.2463C36.9948 42.0157 39.8142 41.9149 42.6337 41.9581C42.6906 42.0878 42.7476 42.2174 42.8046 42.3471C42.7334 43.6295 42.6622 44.9263 42.591 46.2086C41.5657 46.1366 40.5547 46.079 39.5294 46.0357C38.8174 46.0646 38.1055 46.0934 37.3935 46.1222C37.3935 47.5054 37.3792 48.8742 37.3792 50.2575C38.0627 50.2431 38.732 50.2287 39.4155 50.2143C40.099 50.171 40.7683 50.1278 41.4518 50.099C41.5087 50.2287 41.5657 50.3583 41.6227 50.488C41.5515 51.7704 41.4945 53.0672 41.4233 54.3495C40.6828 54.3207 39.9424 54.2919 39.2019 54.2631C38.5754 54.2631 37.9488 54.2775 37.3365 54.2919C37.3365 54.8971 37.3365 55.4878 37.3223 56.093C37.3365 56.9431 37.3507 57.8076 37.3792 58.6577C38.0627 58.6577 38.732 58.6721 39.4155 58.6721C40.455 58.5857 41.4945 58.5137 42.5198 58.456Z" fill="#B71111"></path><path d="M57.0442 62.721C55.962 62.721 54.8656 62.721 53.7833 62.7066C53.3134 59.8392 52.8435 56.9431 52.3594 54.0325C52.2882 54.0325 52.2312 54.0325 52.16 54.0181C51.6047 56.8855 51.0636 59.7816 50.5224 62.6922C49.426 62.6922 48.3438 62.6922 47.2473 62.6922C46.2221 55.8336 45.1683 48.9031 44.1003 41.9581C45.1256 41.9869 46.1651 42.0301 47.1904 42.0877C47.2473 43.0243 47.3043 43.9753 47.3612 44.9118C47.9308 49.1192 48.5004 53.2977 49.0558 57.4618C49.1127 57.4618 49.1839 57.4618 49.2409 57.4618C49.8817 54.0325 50.5367 50.6321 51.1917 47.2749C50.9496 45.6467 50.7076 44.0041 50.4655 42.3615C51.5335 42.4624 52.6014 42.592 53.6552 42.7217C53.7264 43.8024 53.7976 44.8974 53.883 45.9781C54.4526 49.9261 55.008 53.8308 55.5633 57.6779C55.6203 57.6779 55.6915 57.6779 55.7484 57.6923C56.5174 53.8308 57.2863 50.0413 58.0552 46.3383C58.1834 45.3873 58.3116 44.4364 58.4397 43.4998C59.408 43.6871 60.3763 43.8744 61.3304 44.0906C59.8922 50.0125 58.454 56.2515 57.0442 62.721Z" fill="#B71111"></path><path d="M72.3519 62.793C71.2982 62.793 70.2587 62.7786 69.205 62.7786C69.1195 61.9861 69.0341 61.1937 68.9487 60.3868C68.9059 60.0698 68.849 59.7528 68.8063 59.4214C68.0658 59.3493 67.3396 59.2917 66.5991 59.2197C65.9583 59.2053 65.3318 59.1908 64.691 59.1908C64.634 59.4214 64.5771 59.6663 64.5201 59.8969C64.3777 60.8334 64.2496 61.7844 64.1072 62.7354C63.0961 62.7354 62.0851 62.721 61.0741 62.721C62.5408 56.5252 64.0075 50.6177 65.4884 45.0847C66.7273 45.4161 67.9661 45.7764 69.1907 46.1654C70.2302 52.0874 71.284 57.6491 72.3519 62.793ZM68.2936 56.2083C67.9519 54.0325 67.6101 51.8136 67.2684 49.5658C67.2114 49.5514 67.1402 49.537 67.0833 49.5226C66.5564 51.5975 66.0153 53.7155 65.4884 55.8913C65.9583 55.9633 66.4282 56.0353 66.8981 56.1074C67.3538 56.1362 67.8237 56.165 68.2936 56.2083Z" fill="#B71111"></path><path d="M78.9164 59.335C78.9449 60.5021 78.9734 61.6692 78.9876 62.8363C77.9624 62.8363 76.9371 62.8219 75.8976 62.8219C75.983 61.5539 76.0542 60.2859 76.1254 59.018C76.1254 58.7586 76.1254 58.5137 76.1254 58.2543C74.9008 54.9259 73.6905 51.2661 72.4943 47.3181C73.5623 47.6927 74.616 48.0962 75.684 48.5284C75.7695 48.9175 75.8549 49.3065 75.9403 49.6955C76.4814 51.5687 77.0368 53.3554 77.5921 55.07C77.6633 55.0844 77.7345 55.0988 77.7915 55.1276C78.475 53.7732 79.1585 52.5197 79.8278 51.367C79.9559 51.0644 80.0841 50.7762 80.2122 50.488C81.2233 50.9491 82.22 51.439 83.2168 51.9433C81.864 53.6868 80.4258 55.9201 78.9591 58.5857C78.9591 58.8162 78.9449 59.0756 78.9164 59.335Z" fill="#B71111"></path></g><defs><clipPath id="clip0_1_82"><rect width="84" height="77" fill="white"></rect></clipPath></defs></svg> 